<svg width="598" height="628" viewBox="0 0 598 628" fill="none" xmlns="http://www.w3.org/2000/svg">
<path fill-rule="evenodd" clip-rule="evenodd" d="M259.56 0.418223C332.461 6.43272 380.736 75.6311 430.617 129.133C471.475 172.957 494.569 225.721 520.136 279.907C550.197 343.618 614.584 405.855 592.796 472.848C571.007 539.843 484.545 556.711 420.537 586.139C369.048 609.811 315.719 633.651 259.56 626.053C207.323 618.985 173.496 572.045 127.4 546.477C71.8652 515.674 -0.0553131 512.297 -37.7156 461.164C-81.6352 401.532 -110.819 322.057 -90.2993 250.897C-69.6252 179.203 6.01904 142.544 66.6888 99.1084C126.882 56.0135 185.781 -5.66875 259.56 0.418223Z" fill="#F8DF2A"/>
</svg>
