<svg width="567" height="600" viewBox="0 0 567 600" fill="none" xmlns="http://www.w3.org/2000/svg">
<path fill-rule="evenodd" clip-rule="evenodd" d="M329.086 54.676C383.418 65.9912 442.776 54.803 488.362 86.4686C534.436 118.473 552.013 174.714 575.352 225.741C602.147 284.324 641.755 340.96 634.016 404.918C625.515 475.167 594.422 552 531.877 585.041C470.332 617.553 398.683 565.987 329.086 566.003C259.463 566.019 181.539 627.437 126.228 585.133C70.632 542.611 112.062 449.959 90.3421 383.403C68.5701 316.686 -4.062 268.931 0.178189 198.877C4.75117 123.325 43.7519 38.6853 113.046 8.30511C182.197 -22.0124 255.171 39.2824 329.086 54.676Z" fill="#F8DF2A"/>
</svg>
