<svg width="505" height="856" viewBox="0 0 505 856" fill="none" xmlns="http://www.w3.org/2000/svg">
<path fill-rule="evenodd" clip-rule="evenodd" d="M284.372 125.709C356.34 135.077 431.699 184.26 454.206 253.256C476.547 321.745 412.849 385.743 391.657 454.596C376.755 503.014 371.636 551.352 348.573 596.459C318.969 654.358 296.698 721.574 239.415 752.353C175.909 786.476 97.8173 789.712 29.021 768.159C-42.878 745.635 -108.194 698.112 -144.487 632.085C-179.695 568.03 -173.691 491.261 -162.916 418.965C-152.928 351.942 -138.303 278.867 -85.515 236.378C-35.4716 196.098 38.6635 225.589 100.208 207.175C166.131 187.451 216.138 116.826 284.372 125.709Z" fill="#F8DF2A"/>
</svg>
