<svg width="493" height="571" viewBox="0 0 493 571" fill="none" xmlns="http://www.w3.org/2000/svg">
<path fill-rule="evenodd" clip-rule="evenodd" d="M295.216 35.9561C366.958 28.8489 438.436 -19.8136 504.485 9.08236C573.78 39.3981 625.519 111.179 637.762 185.817C649.477 257.235 594.455 318.539 566.174 385.157C541 444.455 536.526 519.989 481.604 553.658C427.302 586.947 357.741 563.407 295.216 551.265C243.894 541.299 199.583 517.392 154.918 490.22C105.745 460.305 48.8348 436.981 22.8988 385.598C-5.01546 330.296 -5.3334 264.515 10.8034 204.706C27.5243 142.731 58.8433 80.5159 114.048 47.7613C167.399 16.1065 233.482 42.0718 295.216 35.9561Z" fill="#F8DF2A"/>
</svg>
