<svg width="505" height="818" viewBox="0 0 505 818" fill="none" xmlns="http://www.w3.org/2000/svg">
<path fill-rule="evenodd" clip-rule="evenodd" d="M633.449 546.755C595.33 580.039 561.451 614.202 516.796 637.993C458.922 668.827 400.043 722.231 336.897 704.752C273.712 687.263 254.416 608.821 216.982 555.004C177.99 498.948 116.773 452.157 113.72 383.902C110.577 313.633 151.197 247.093 200.986 197.354C247.623 150.764 312.346 128.186 377.738 120.151C436.53 112.926 496.799 124.269 547.534 154.771C593.007 182.11 606.974 238.091 641.261 278.585C682.982 327.86 771.589 352.581 769.707 417.166C767.837 481.365 681.848 504.496 633.449 546.755Z" fill="#F8DF2A"/>
</svg>
