<svg width="395" height="592" viewBox="0 0 395 592" fill="none" xmlns="http://www.w3.org/2000/svg">
<path fill-rule="evenodd" clip-rule="evenodd" d="M94.0291 20.1989C151.24 38.5357 175.218 103.616 224.242 138.343C274.257 173.772 353.16 169.876 381.816 224.057C410.969 279.181 381.444 345.5 365.713 405.84C348.925 470.239 347.343 554.491 287.881 584.379C227.326 614.816 161.794 543.476 94.0291 542.399C28.1596 541.353 -35.1356 604.903 -95.3979 578.289C-156.453 551.324 -184.823 478.026 -199.273 412.865C-212.874 351.536 -185.868 292.353 -172.416 230.992C-157.093 161.096 -171.354 73.9316 -115.237 29.5353C-59.103 -14.8738 25.8683 -1.64756 94.0291 20.1989Z" fill="#F8DF2A"/>
</svg>
