<svg width="400" height="226" viewBox="0 0 400 226" fill="none" xmlns="http://www.w3.org/2000/svg">
<g clip-path="url(#clip0)">
<path d="M362.211 33.4608C362.15 40.4236 361.64 47.3751 360.684 54.2723C360.651 54.5145 360.614 54.7567 360.581 54.9989L295.384 54.6345C295.193 54.394 295.004 54.1505 294.822 53.9042C294.213 53.0889 293.643 52.2505 293.119 51.3831C290.602 47.2044 289.45 42.3121 290.604 38.9366L290.625 38.8842C290.874 38.145 291.267 37.4624 291.781 36.8755C294.414 33.9113 299.737 34.4054 304.568 36.798C300.235 32.0543 296.785 26.0685 296.523 20.7255C296.266 15.514 298.99 11.791 301.946 8.62715C302.043 8.52256 302.14 8.42088 302.237 8.31921C302.284 8.26691 302.333 8.21752 302.38 8.16522C304.686 5.75412 307.374 3.37728 311.265 3.6648C315.532 3.98069 320.263 7.55548 323.581 11.7211C326.898 15.8838 329.102 20.6126 331.337 25.2278C333.574 29.84 335.994 34.5701 339.585 38.5123C334.722 32.361 330.801 25.362 329.353 18.5551C327.905 11.7482 329.18 5.21052 333.513 2.00471C334.829 1.06146 336.351 0.447083 337.953 0.212996C338.14 0.181919 338.33 0.156689 338.523 0.134402C342.535 -0.322125 347.325 1.06557 351.4 4.38262C355.888 8.03494 359 13.4493 360.548 18.5893C362.096 23.7292 362.261 28.6774 362.211 33.4608Z" fill="#F2F2F2"/>
<path d="M319.555 54.7695L318.309 54.7625C317.913 54.515 317.515 54.2703 317.116 54.0286C316.868 53.8725 316.618 53.7221 316.368 53.5688C312.232 51.0429 308.071 48.62 303.884 46.3001C299.701 43.9784 295.497 41.7635 291.272 39.6557C291.16 39.6069 291.068 39.5205 291.013 39.4113C290.959 39.3022 290.944 39.1772 290.971 39.0582C290.976 39.0426 290.983 39.0279 290.992 39.0146C291.051 38.9039 291.183 38.8579 291.375 38.9524C291.893 39.2123 292.415 39.4722 292.933 39.738C297.17 41.8819 301.388 44.1328 305.588 46.4907C309.786 48.8476 313.96 51.3086 318.109 53.8736C318.197 53.9266 318.284 53.9826 318.371 54.0356C318.767 54.2802 319.16 54.5249 319.555 54.7695Z" fill="white"/>
<path d="M335.63 54.8591L334.859 54.8548C334.685 54.6114 334.514 54.3681 334.34 54.1247C330.255 48.3953 326.171 42.6659 322.087 36.9365C315.4 27.5565 308.715 18.1766 302.032 8.79669C301.992 8.7462 301.963 8.68851 301.945 8.62681C301.888 8.41913 302.041 8.29732 302.236 8.31886C302.319 8.33063 302.398 8.35985 302.468 8.40456C302.538 8.44927 302.598 8.50845 302.644 8.57814C306.393 13.8384 310.141 19.0967 313.888 24.3531C320.54 33.6861 327.192 43.0181 333.842 52.3492C334.265 52.9415 334.688 53.5367 335.111 54.129C335.285 54.3724 335.459 54.6158 335.63 54.8591Z" fill="white"/>
<path d="M352.805 50.3818C352.765 51.6811 352.679 52.9598 352.567 54.2267C352.545 54.469 352.523 54.7112 352.502 54.9535L351.693 54.949C351.717 54.7067 351.742 54.4645 351.764 54.2222C351.935 52.392 352.056 50.5411 352.073 48.6399C352.094 43.3691 351.58 38.1097 350.54 32.9426C349.433 27.3791 347.845 21.9225 345.792 16.6345C343.638 11.0574 341.04 5.66178 338.025 0.499381C337.968 0.415244 337.943 0.31375 337.953 0.212793C337.987 -0.0177487 338.294 -0.0861124 338.523 0.134191C338.568 0.177416 338.607 0.226787 338.639 0.280859C339.012 0.922526 339.378 1.56611 339.738 2.2116C342.642 7.40266 345.128 12.8171 347.172 18.4033C349.119 23.7086 350.6 29.1735 351.598 34.7359C352.533 39.8964 352.937 45.139 352.805 50.3818Z" fill="white"/>
<path d="M107.667 99.4452C107.606 106.408 107.096 113.359 106.14 120.257C106.107 120.499 106.07 120.741 106.037 120.983L40.8399 120.619C40.6485 120.378 40.46 120.135 40.2775 119.889C39.6688 119.073 39.0983 118.235 38.5746 117.367C36.0575 113.189 34.9051 108.296 36.0599 104.921L36.0806 104.869C36.3298 104.129 36.7226 103.447 37.2364 102.86C39.8693 99.8957 45.1928 100.39 50.0237 102.782C45.6907 98.0387 42.2405 92.0529 41.9783 86.7099C41.7213 81.4984 44.446 77.7754 47.4012 74.6115C47.4982 74.5069 47.5951 74.4052 47.6921 74.3036C47.7391 74.2513 47.789 74.2019 47.8359 74.1496C50.1417 71.7385 52.8298 69.3617 56.7206 69.6492C60.9878 69.9651 65.7189 73.5399 69.0362 77.7055C72.3534 81.8681 74.5578 86.597 76.7922 91.2121C79.0295 95.8244 81.45 100.554 85.0401 104.497C80.1776 98.3453 76.2571 91.3464 74.8088 84.5395C73.3606 77.7325 74.6352 71.1949 78.9688 67.9891C80.2845 67.0458 81.8069 66.4315 83.4087 66.1974C83.5956 66.1663 83.7855 66.1411 83.9784 66.1188C87.9902 65.6622 92.7802 67.0499 96.8555 70.367C101.344 74.0193 104.455 79.4337 106.004 84.5736C107.552 89.7135 107.717 94.6617 107.667 99.4452Z" fill="#F2F2F2"/>
<path d="M65.011 120.754L63.7643 120.747C63.3685 120.499 62.9708 120.255 62.5712 120.013C62.3238 119.857 62.0736 119.706 61.8232 119.553C57.688 117.027 53.5268 114.604 49.3399 112.285C45.1567 109.963 40.9525 107.748 36.7273 105.64C36.6153 105.591 36.5239 105.505 36.469 105.396C36.4141 105.287 36.3992 105.162 36.4269 105.043C36.4314 105.027 36.4384 105.012 36.4477 104.999C36.5066 104.888 36.6383 104.842 36.8306 104.937C37.3488 105.197 37.8701 105.457 38.3883 105.722C42.6251 107.866 46.8436 110.117 51.0441 112.475C55.2416 114.832 59.4152 117.293 63.5648 119.858C63.6521 119.911 63.7395 119.967 63.8267 120.02C64.2224 120.265 64.6153 120.509 65.011 120.754Z" fill="white"/>
<path d="M81.0854 120.843L80.3145 120.839C80.1407 120.596 79.9698 120.352 79.7959 120.109C75.7108 114.38 71.6265 108.65 67.5431 102.921C60.856 93.5409 54.1709 84.161 47.4878 74.7811C47.4482 74.7306 47.4187 74.6729 47.4011 74.6112C47.3439 74.4035 47.4964 74.2817 47.6919 74.3032C47.7744 74.315 47.8533 74.3442 47.9236 74.3889C47.9938 74.4336 48.0537 74.4928 48.0993 74.5625C51.8484 79.8228 55.5966 85.0811 59.3438 90.3375C65.9961 99.6705 72.6474 109.003 79.2978 118.334C79.7208 118.926 80.1438 119.521 80.5668 120.113C80.7407 120.357 80.9146 120.6 81.0854 120.843Z" fill="white"/>
<path d="M98.2597 116.366C98.2204 117.666 98.1344 118.944 98.0221 120.211C98.0004 120.453 97.9786 120.696 97.9567 120.938L97.1479 120.933C97.1726 120.691 97.1974 120.449 97.2191 120.207C97.39 118.376 97.5113 116.525 97.5278 114.624C97.5493 109.353 97.0357 104.094 95.9949 98.927C94.8886 93.3635 93.3001 87.9068 91.2474 82.6189C89.093 77.0418 86.4955 71.6461 83.4798 66.4838C83.423 66.3996 83.3977 66.2981 83.4084 66.1972C83.4418 65.9666 83.7487 65.8983 83.9782 66.1186C84.0235 66.1618 84.0625 66.2112 84.0941 66.2652C84.4672 66.9069 84.8335 67.5505 85.1931 68.196C88.0975 73.387 90.5836 78.8014 92.6275 84.3877C94.5744 89.693 96.0554 95.1579 97.0535 100.72C97.9885 105.881 98.3927 111.123 98.2597 116.366Z" fill="white"/>
<path d="M139.921 148.778C139.302 148.779 138.694 148.613 138.161 148.298C137.628 147.983 137.19 147.531 136.892 146.988L133.402 140.613C132.964 139.811 132.862 138.868 133.119 137.991C133.375 137.114 133.969 136.374 134.77 135.934L187.892 106.841C188.694 106.403 189.637 106.301 190.514 106.557C191.391 106.813 192.131 107.407 192.571 108.208L196.061 114.583C196.499 115.385 196.601 116.328 196.344 117.205C196.088 118.083 195.494 118.822 194.693 119.262L141.571 148.356C141.065 148.633 140.498 148.779 139.921 148.778Z" fill="#F8DF2A"/>
<path d="M213.838 115.072C213.48 115.071 213.124 115.016 212.783 114.906C212.351 114.77 211.951 114.549 211.605 114.257C211.259 113.964 210.975 113.607 210.768 113.204L207.438 106.744C207.021 105.931 206.942 104.986 207.22 104.115C207.499 103.245 208.111 102.52 208.922 102.101L262.754 74.3424C263.567 73.9245 264.512 73.846 265.383 74.1243C266.253 74.4025 266.977 75.0148 267.397 75.8266L270.727 82.2862C271.145 83.0989 271.223 84.0442 270.945 84.9147C270.667 85.7852 270.055 86.5098 269.243 86.9294L215.411 114.688C214.925 114.94 214.386 115.071 213.838 115.072Z" fill="#F8DF2A"/>
<path d="M212.868 116.635C212.228 116.635 211.6 116.457 211.055 116.12C210.51 115.784 210.068 115.303 209.781 114.731L206.521 108.236C206.152 107.503 206.058 106.664 206.254 105.867C206.275 105.78 206.3 105.692 206.329 105.604C206.395 105.406 206.467 105.097 206.55 104.738C206.814 103.596 207.142 102.174 207.813 101.837L231.466 87.4983C231.871 87.292 232.313 87.1678 232.765 87.1328C233.218 87.0978 233.674 87.1527 234.105 87.2944C234.537 87.4361 234.936 87.6618 235.28 87.9585C235.624 88.2551 235.906 88.6169 236.11 89.0229L242.076 101.323C242.484 102.14 242.552 103.086 242.264 103.953C241.977 104.819 241.357 105.537 240.541 105.947L214.387 116.274C213.916 116.512 213.396 116.635 212.868 116.635Z" fill="#2F2E41"/>
<path d="M202.064 83.7708C216.617 83.7708 228.414 71.9718 228.414 57.4169C228.414 42.862 216.617 31.063 202.064 31.063C187.512 31.063 175.714 42.862 175.714 57.4169C175.714 71.9718 187.512 83.7708 202.064 83.7708Z" fill="#F8DF2A"/>
<path d="M197.912 224.764H190.646C189.732 224.763 188.856 224.399 188.21 223.753C187.564 223.107 187.2 222.231 187.199 221.317V160.742C187.2 159.828 187.564 158.952 188.21 158.306C188.856 157.66 189.732 157.296 190.646 157.295H197.912C198.826 157.296 199.702 157.66 200.348 158.306C200.994 158.952 201.358 159.828 201.359 160.742V221.317C201.358 222.231 200.994 223.107 200.348 223.753C199.702 224.399 198.826 224.763 197.912 224.764Z" fill="#F8DF2A"/>
<path d="M229.222 197.098C228.673 197.099 228.132 196.969 227.644 196.718C227.155 196.467 226.734 196.104 226.414 195.657L191.187 146.382C190.657 145.638 190.443 144.714 190.593 143.813C190.742 142.911 191.244 142.106 191.986 141.574L197.898 137.346C198.642 136.815 199.566 136.601 200.467 136.751C201.368 136.901 202.174 137.402 202.706 138.145L237.933 187.42C238.463 188.164 238.677 189.088 238.527 189.989C238.377 190.891 237.876 191.696 237.134 192.229L231.222 196.456C230.639 196.874 229.94 197.098 229.222 197.098Z" fill="#F8DF2A"/>
<path d="M219.877 224.834C219.152 224.822 218.44 224.643 217.795 224.313L211.29 221.074C209.589 220.227 208.652 218.64 209.201 217.538L225.966 183.856C226.515 182.754 228.346 182.545 230.047 183.392L236.553 186.631C237.311 186.991 237.956 187.552 238.417 188.253C238.618 188.525 238.744 188.845 238.783 189.181C238.823 189.516 238.774 189.857 238.642 190.168L221.876 223.849C221.555 224.495 220.794 224.834 219.877 224.834Z" fill="#F8DF2A"/>
<path d="M177.558 130.836C176.904 130.835 176.264 130.648 175.713 130.298C175.161 129.947 174.72 129.448 174.44 128.857L168.455 116.573C168.262 116.163 168.151 115.72 168.129 115.267C168.108 114.815 168.175 114.362 168.328 113.936C168.482 113.51 168.717 113.118 169.022 112.783C169.327 112.448 169.694 112.176 170.104 111.983L196.025 102.217C196.685 101.905 198.006 102.525 199.068 103.022C199.401 103.179 199.688 103.314 199.885 103.384C199.972 103.415 200.056 103.45 200.139 103.487C200.886 103.825 201.488 104.418 201.836 105.16L204.931 111.736C205.319 112.563 205.363 113.511 205.054 114.371C204.744 115.23 204.106 115.932 203.28 116.323L179.045 130.498C178.581 130.719 178.073 130.835 177.558 130.836Z" fill="#2F2E41"/>
<path d="M198.556 67.1843L198.529 66.1995C200.361 66.1485 201.976 66.0336 203.19 65.1468C203.534 64.8811 203.816 64.5445 204.019 64.1597C204.221 63.7749 204.338 63.3511 204.362 62.917C204.383 62.6518 204.343 62.3852 204.245 62.138C204.146 61.8908 203.992 61.6696 203.794 61.4917C202.989 60.8112 201.693 61.0315 200.748 61.4647L199.933 61.8384L201.495 50.4189L202.471 50.5526L201.142 60.2664C202.426 59.8889 203.615 60.0514 204.43 60.7396C204.743 61.0127 204.988 61.3545 205.147 61.7382C205.306 62.122 205.374 62.5372 205.346 62.9516C205.317 63.5348 205.161 64.1047 204.889 64.6213C204.617 65.1379 204.235 65.5887 203.77 65.9422C202.211 67.0819 200.185 67.1386 198.556 67.1843Z" fill="#2F2E41"/>
<path d="M212.599 51.3906H207.296V52.3755H212.599V51.3906Z" fill="#2F2E41"/>
<path d="M195.859 51.3906H190.556V52.3755H195.859V51.3906Z" fill="#2F2E41"/>
<path d="M244.296 168.145H162.329C161.767 168.147 161.214 168 160.726 167.72C160.238 167.439 159.833 167.035 159.552 166.548C159.271 166.06 159.123 165.507 159.124 164.945C159.125 164.382 159.275 163.83 159.558 163.343L200.541 92.348C200.82 91.8592 201.223 91.4533 201.71 91.172C202.197 90.8907 202.75 90.7443 203.313 90.7476C203.875 90.7443 204.428 90.8907 204.915 91.172C205.403 91.4533 205.806 91.8592 206.084 92.348L247.068 163.343C247.349 163.83 247.496 164.382 247.496 164.944C247.496 165.506 247.349 166.058 247.068 166.544C246.787 167.031 246.383 167.435 245.896 167.716C245.41 167.997 244.858 168.145 244.296 168.145Z" fill="#2F2E41"/>
<path d="M204.055 30.7386C201.133 19.0243 189.807 10.0298 177.671 10.2536C171.663 10.4222 165.869 12.5234 161.149 16.2454C158.769 18.0976 156.721 20.3393 155.09 22.8756C153.261 25.7307 152.112 28.9536 151.215 32.2065C149.404 38.7792 148.55 46.2168 143.952 51.5843C142.045 53.7571 139.695 55.4953 137.059 56.6813C134.423 57.8673 131.563 58.4736 128.673 58.4591C125.761 58.4137 122.899 57.6946 120.311 56.3582C117.723 55.0218 115.48 53.1043 113.757 50.756C110.296 46.1412 108.592 39.7588 110.591 34.1893C111.573 31.4562 113.682 28.8745 116.7 28.4189C118.076 28.2326 119.476 28.4528 120.729 29.0525C121.981 29.6521 123.031 30.6049 123.749 31.7937C125.106 34.175 124.672 37.3526 122.972 39.453C121.182 41.6654 118.189 42.278 115.55 41.3891C114.31 40.9674 113.219 40.1934 112.411 39.1618C111.821 38.4164 110.775 39.4614 111.359 40.1991C112.295 41.3219 113.504 42.1856 114.869 42.7073C116.235 43.2291 117.711 43.3915 119.157 43.179C120.6 42.9607 121.956 42.3502 123.076 41.4142C124.196 40.4781 125.037 39.2525 125.509 37.8709C126.025 36.5011 126.161 35.0168 125.901 33.5761C125.641 32.1353 124.995 30.792 124.032 29.6893C123.029 28.5982 121.762 27.7828 120.354 27.3213C118.945 26.8598 117.442 26.7675 115.987 27.0534C112.872 27.7131 110.609 30.276 109.435 33.1159C108.278 36.0662 107.973 39.2822 108.554 42.3976C109.09 45.4039 110.254 48.2635 111.969 50.7902C113.683 53.3168 115.911 55.454 118.507 57.0625C123.759 60.2882 130.315 60.732 136.078 58.66C138.957 57.6413 141.587 56.0218 143.792 53.9089C146.162 51.5042 147.976 48.6088 149.106 45.4269C151.704 38.6235 152.085 31.0105 155.761 24.6154C158.967 19.1854 164.025 15.0948 170.005 13.0949C175.95 11.0407 182.457 11.3531 188.178 13.9674C193.867 16.6023 198.449 21.1524 201.124 26.8228C201.761 28.2045 202.265 29.6437 202.629 31.121C202.859 32.0452 204.286 31.6617 204.055 30.7386Z" fill="#2F2E41"/>
<path d="M385.315 123.581H269.613C267.394 123.578 265.267 122.696 263.697 121.126C262.128 119.557 261.246 117.429 261.243 115.21V63.0132C261.246 60.7938 262.128 58.6661 263.697 57.0967C265.267 55.5274 267.394 54.6446 269.613 54.6421H385.315C387.534 54.6446 389.662 55.5274 391.231 57.0967C392.8 58.6661 393.683 60.7938 393.685 63.0132V115.21C393.683 117.429 392.8 119.557 391.231 121.126C389.662 122.696 387.534 123.578 385.315 123.581ZM269.613 55.6269C267.655 55.6291 265.778 56.4081 264.393 57.7928C263.009 59.1775 262.23 61.0549 262.228 63.0132V115.21C262.23 117.168 263.009 119.045 264.393 120.43C265.778 121.815 267.655 122.594 269.613 122.596H385.315C387.273 122.594 389.15 121.815 390.535 120.43C391.919 119.045 392.698 117.168 392.7 115.21V63.0132C392.698 61.0549 391.919 59.1775 390.535 57.7928C389.15 56.4081 387.273 55.6291 385.315 55.6269H269.613Z" fill="#3F3D56"/>
<path d="M292.941 90.0335C298.855 90.0335 303.649 85.2389 303.649 79.3244C303.649 73.4099 298.855 68.6152 292.941 68.6152C287.028 68.6152 282.234 73.4099 282.234 79.3244C282.234 85.2389 287.028 90.0335 292.941 90.0335Z" fill="#CCCCCC"/>
<path d="M316.194 72.1848C315.726 72.1926 315.279 72.3841 314.951 72.7179C314.623 73.0518 314.439 73.5013 314.439 73.9696C314.439 74.4379 314.623 74.8874 314.951 75.2213C315.279 75.5551 315.726 75.7466 316.194 75.7544H370.784C371.257 75.7609 371.713 75.5798 372.052 75.2507C372.391 74.9216 372.586 74.4714 372.594 73.9988C372.601 73.5262 372.422 73.0699 372.093 72.7298C371.765 72.3898 371.315 72.1938 370.843 72.1848C370.824 72.1845 370.804 72.1845 370.784 72.1848H316.194Z" fill="#CCCCCC"/>
<path d="M316.194 82.8943C315.726 82.902 315.279 83.0935 314.951 83.4274C314.623 83.7612 314.439 84.2108 314.439 84.679C314.439 85.1473 314.623 85.5969 314.951 85.9307C315.279 86.2646 315.726 86.456 316.194 86.4638H370.784C371.257 86.4704 371.713 86.2893 372.052 85.9601C372.391 85.631 372.586 85.1808 372.594 84.7083C372.601 84.2357 372.422 83.7793 372.093 83.4393C371.765 83.0992 371.315 82.9032 370.843 82.8943C370.824 82.894 370.804 82.894 370.784 82.8943H316.194Z" fill="#CCCCCC"/>
<path d="M283.892 95.3289C283.424 95.3366 282.977 95.5281 282.649 95.862C282.321 96.1958 282.137 96.6454 282.137 97.1136C282.137 97.5819 282.321 98.0315 282.649 98.3653C282.977 98.6992 283.424 98.8907 283.892 98.8984H370.978C371.212 98.9029 371.446 98.861 371.664 98.7751C371.883 98.6892 372.082 98.5611 372.251 98.398C372.42 98.235 372.555 98.0402 372.649 97.8248C372.742 97.6095 372.792 97.3778 372.796 97.143C372.8 96.9083 372.757 96.675 372.671 96.4567C372.585 96.2384 372.456 96.0393 372.292 95.8708C372.129 95.7022 371.934 95.5676 371.718 95.4746C371.503 95.3817 371.271 95.3321 371.036 95.3289C371.017 95.3285 370.997 95.3285 370.978 95.3289H283.892Z" fill="#CCCCCC"/>
<path d="M283.892 106.038C283.424 106.046 282.977 106.237 282.649 106.571C282.321 106.905 282.137 107.354 282.137 107.823C282.137 108.291 282.321 108.74 282.649 109.074C282.977 109.408 283.424 109.6 283.892 109.607H370.978C371.212 109.612 371.446 109.57 371.664 109.484C371.883 109.398 372.082 109.27 372.251 109.107C372.42 108.944 372.555 108.749 372.649 108.534C372.742 108.318 372.792 108.087 372.796 107.852C372.8 107.617 372.757 107.384 372.671 107.166C372.585 106.947 372.456 106.748 372.292 106.58C372.129 106.411 371.934 106.277 371.718 106.184C371.503 106.091 371.271 106.041 371.036 106.038C371.017 106.038 370.997 106.038 370.978 106.038H283.892Z" fill="#CCCCCC"/>
<path d="M130.771 189.565H15.0687C12.8496 189.563 10.7221 188.68 9.15298 187.111C7.58385 185.541 6.70123 183.414 6.69873 181.194V128.998C6.70123 126.778 7.58386 124.65 9.15299 123.081C10.7221 121.512 12.8496 120.629 15.0687 120.626H130.771C132.99 120.629 135.117 121.512 136.686 123.081C138.255 124.65 139.138 126.778 139.141 128.998V181.194C139.138 183.414 138.255 185.541 136.686 187.111C135.117 188.68 132.99 189.563 130.771 189.565ZM15.0687 121.611C13.1107 121.614 11.2335 122.392 9.84896 123.777C8.46444 125.162 7.68564 127.039 7.68343 128.998V181.194C7.68564 183.152 8.46444 185.03 9.84896 186.415C11.2335 187.799 13.1107 188.578 15.0687 188.58H130.771C132.729 188.578 134.606 187.799 135.99 186.415C137.375 185.03 138.154 183.152 138.156 181.194V128.998C138.154 127.039 137.375 125.162 135.99 123.777C134.606 122.392 132.729 121.614 130.771 121.611H15.0687Z" fill="#3F3D56"/>
<path d="M29.3477 142.54C28.8795 142.548 28.4332 142.739 28.1048 143.073C27.7765 143.407 27.5925 143.856 27.5925 144.325C27.5925 144.793 27.7765 145.242 28.1048 145.576C28.4332 145.91 28.8795 146.102 29.3477 146.109H116.433C116.668 146.114 116.901 146.072 117.12 145.986C117.338 145.9 117.538 145.772 117.707 145.609C117.876 145.446 118.011 145.251 118.104 145.036C118.198 144.82 118.248 144.589 118.252 144.354C118.256 144.119 118.213 143.886 118.127 143.668C118.04 143.449 117.912 143.25 117.748 143.082C117.585 142.913 117.39 142.779 117.174 142.686C116.958 142.593 116.727 142.543 116.492 142.54C116.472 142.539 116.453 142.539 116.433 142.54H29.3477Z" fill="#CCCCCC"/>
<path d="M29.3477 153.249C28.8795 153.257 28.4332 153.448 28.1048 153.782C27.7765 154.116 27.5925 154.565 27.5925 155.034C27.5925 155.502 27.7765 155.951 28.1048 156.285C28.4332 156.619 28.8795 156.811 29.3477 156.818H116.433C116.668 156.823 116.901 156.781 117.12 156.695C117.338 156.609 117.538 156.481 117.707 156.318C117.876 156.155 118.011 155.96 118.104 155.745C118.198 155.529 118.248 155.298 118.252 155.063C118.256 154.828 118.213 154.595 118.127 154.377C118.04 154.158 117.912 153.959 117.748 153.791C117.585 153.622 117.39 153.488 117.174 153.395C116.958 153.302 116.727 153.252 116.492 153.249C116.472 153.248 116.453 153.248 116.433 153.249H29.3477Z" fill="#CCCCCC"/>
<path d="M29.3477 164.082C28.8795 164.09 28.4332 164.281 28.1048 164.615C27.7765 164.949 27.5925 165.399 27.5925 165.867C27.5925 166.335 27.7765 166.785 28.1048 167.119C28.4332 167.453 28.8795 167.644 29.3477 167.652H116.433C116.668 167.656 116.901 167.614 117.12 167.528C117.338 167.443 117.538 167.315 117.707 167.151C117.876 166.988 118.011 166.794 118.104 166.578C118.198 166.363 118.248 166.131 118.252 165.896C118.256 165.662 118.213 165.428 118.127 165.21C118.04 164.992 117.912 164.793 117.748 164.624C117.585 164.456 117.39 164.321 117.174 164.228C116.958 164.135 116.727 164.086 116.492 164.082C116.472 164.082 116.453 164.082 116.433 164.082H29.3477Z" fill="#CCCCCC"/>
<path d="M9.70718 176.576C22.651 176.797 22.649 196.054 9.70676 196.273C-3.23667 196.052 -3.23464 176.795 9.70718 176.576Z" fill="#F8DF2A"/>
<path d="M9.70712 191.787C9.52365 191.787 9.34776 191.714 9.21803 191.584C9.08829 191.454 9.01532 191.279 9.0151 191.095V187.425C9.01502 187.344 8.98251 187.265 8.9247 187.207C8.86689 187.149 8.78849 187.117 8.70672 187.117H5.03758C4.85402 187.117 4.67797 187.044 4.54817 186.914C4.41837 186.784 4.34546 186.608 4.34546 186.425C4.34546 186.241 4.41837 186.065 4.54817 185.935C4.67797 185.805 4.85402 185.732 5.03758 185.732H8.70675C8.7885 185.732 8.86688 185.7 8.9247 185.642C8.98251 185.584 9.01503 185.506 9.01512 185.424V181.754C9.01561 181.571 9.08873 181.395 9.21845 181.266C9.34817 181.137 9.52389 181.064 9.7071 181.064C9.89031 181.064 10.066 181.137 10.1958 181.266C10.3255 181.395 10.3986 181.571 10.3991 181.754V185.424C10.3992 185.506 10.4317 185.584 10.4895 185.642C10.5473 185.7 10.6257 185.732 10.7075 185.732H14.3766C14.5602 185.732 14.7362 185.805 14.866 185.935C14.9958 186.065 15.0688 186.241 15.0688 186.425C15.0688 186.608 14.9958 186.784 14.866 186.914C14.7362 187.044 14.5602 187.117 14.3766 187.117H10.7075C10.6257 187.117 10.5473 187.149 10.4895 187.207C10.4317 187.265 10.3992 187.344 10.3991 187.425V191.095C10.3989 191.278 10.3259 191.454 10.1962 191.584C10.0665 191.714 9.89058 191.787 9.70712 191.787Z" fill="white"/>
</g>
<defs>
<clipPath id="clip0">
<rect width="400" height="225.512" fill="white"/>
</clipPath>
</defs>
</svg>
